<svg width="45" height="45" viewBox="0 0 45 45" fill="none" xmlns="http://www.w3.org/2000/svg">
<path d="M22.5 4.21875C18.8843 4.21875 15.3498 5.29093 12.3435 7.2997C9.33715 9.30847 6.994 12.1636 5.61034 15.5041C4.22667 18.8445 3.86464 22.5203 4.57003 26.0665C5.27541 29.6127 7.01653 32.8701 9.57321 35.4268C12.1299 37.9835 15.3873 39.7246 18.9335 40.43C22.4797 41.1354 26.1555 40.7733 29.4959 39.3897C32.8364 38.006 35.6915 35.6629 37.7003 32.6565C39.7091 29.6502 40.7813 26.1157 40.7813 22.5C40.7761 17.6531 38.8484 13.0061 35.4212 9.57886C31.9939 6.15157 27.3469 4.22387 22.5 4.21875ZM17.8647 29.5312H27.1354C26.1914 32.7551 24.6094 35.6607 22.5 37.9494C20.3906 35.6607 18.8086 32.7551 17.8647 29.5312ZM17.2266 26.7188C16.7602 23.9256 16.7602 21.0744 17.2266 18.2812H27.7734C28.2398 21.0744 28.2398 23.9256 27.7734 26.7188H17.2266ZM7.03126 22.5C7.03003 21.0734 7.22704 19.6536 7.61661 18.2812H14.3772C13.9576 21.0781 13.9576 23.9219 14.3772 26.7188H7.61661C7.22704 25.3464 7.03003 23.9266 7.03126 22.5ZM27.1354 15.4688H17.8647C18.8086 12.2449 20.3906 9.33926 22.5 7.05059C24.6094 9.33926 26.1914 12.2449 27.1354 15.4688ZM30.6229 18.2812H37.3834C38.1639 21.0396 38.1639 23.9604 37.3834 26.7188H30.6229C31.0424 23.9219 31.0424 21.0781 30.6229 18.2812ZM36.276 15.4688H30.0481C29.3304 12.6448 28.1252 9.96793 26.4867 7.55859C28.58 8.12113 30.5324 9.11553 32.2183 10.4778C33.9043 11.8402 35.2865 13.5402 36.276 15.4688ZM18.5133 7.55859C16.8748 9.96793 15.6696 12.6448 14.952 15.4688H8.72403C9.71355 13.5402 11.0957 11.8402 12.7817 10.4778C14.4676 9.11553 16.42 8.12113 18.5133 7.55859ZM8.72403 29.5312H14.952C15.6696 32.3552 16.8748 35.0321 18.5133 37.4414C16.42 36.8789 14.4676 35.8845 12.7817 34.5222C11.0957 33.1598 9.71355 31.4598 8.72403 29.5312ZM26.4867 37.4414C28.1252 35.0321 29.3304 32.3552 30.0481 29.5312H36.276C35.2865 31.4598 33.9043 33.1598 32.2183 34.5222C30.5324 35.8845 28.58 36.8789 26.4867 37.4414Z" fill="#E95420"/>
</svg>
