<svg width="14" height="14" viewBox="0 0 14 14" fill="none" xmlns="http://www.w3.org/2000/svg">
<path d="M12.2986 7.48614C12.4276 7.3572 12.5 7.18233 12.5 7C12.5 6.81766 12.4276 6.6428 12.2986 6.51386C12.1697 6.38493 11.9948 6.3125 11.8125 6.3125H7.6875V2.1875C7.6875 2.00516 7.61507 1.8303 7.48614 1.70136C7.3572 1.57243 7.18234 1.5 7 1.5C6.81766 1.5 6.6428 1.57243 6.51386 1.70136C6.38493 1.8303 6.3125 2.00516 6.3125 2.1875V6.3125H2.1875C2.00516 6.3125 1.8303 6.38493 1.70136 6.51386C1.57243 6.6428 1.5 6.81766 1.5 7C1.5 7.18234 1.57243 7.3572 1.70136 7.48614C1.8303 7.61507 2.00516 7.6875 2.1875 7.6875H6.3125V11.8125C6.3125 11.9948 6.38493 12.1697 6.51386 12.2986C6.6428 12.4276 6.81766 12.5 7 12.5C7.18233 12.5 7.3572 12.4276 7.48614 12.2986C7.61507 12.1697 7.6875 11.9948 7.6875 11.8125V7.6875H11.8125C11.9948 7.6875 12.1697 7.61507 12.2986 7.48614Z" fill="#E95420" stroke="#E95420" stroke-width="0.5"/>
</svg>
