<svg width="14" height="14" viewBox="0 0 14 14" fill="none" xmlns="http://www.w3.org/2000/svg">
<path d="M13.082 5.32044C13.0291 5.15713 12.9292 5.01302 12.7949 4.90606C12.6606 4.79909 12.4978 4.73399 12.3268 4.71888L9.07892 4.43887L7.80579 1.41138C7.73951 1.25252 7.6277 1.11682 7.48446 1.02138C7.34121 0.925929 7.17293 0.875 7.00079 0.875C6.82866 0.875 6.66038 0.925929 6.51713 1.02138C6.37388 1.11682 6.26208 1.25252 6.19579 1.41138L4.9265 4.43887L1.67478 4.72052C1.50308 4.73494 1.33946 4.79974 1.20444 4.90679C1.06942 5.01384 0.969016 5.15836 0.915809 5.32225C0.862603 5.48613 0.858966 5.66208 0.905355 5.82802C0.951745 5.99396 1.0461 6.14251 1.17657 6.25505L3.64353 8.41083L2.90415 11.6122C2.86506 11.7798 2.87621 11.9551 2.93623 12.1163C2.99624 12.2776 3.10245 12.4175 3.24157 12.5187C3.3807 12.6199 3.54656 12.6778 3.71844 12.6853C3.89031 12.6927 4.06056 12.6493 4.2079 12.5605L6.99696 10.8652L9.79204 12.5605C9.93939 12.6493 10.1096 12.6927 10.2815 12.6853C10.4534 12.6778 10.6192 12.6199 10.7584 12.5187C10.8975 12.4175 11.0037 12.2776 11.0637 12.1163C11.1237 11.9551 11.1349 11.7798 11.0958 11.6122L10.357 8.40755L12.8234 6.25505C12.9538 6.14212 13.048 5.99315 13.094 5.82685C13.14 5.66056 13.1359 5.48437 13.082 5.32044ZM12.2497 5.59388L9.78329 7.74637C9.66325 7.85079 9.57396 7.98596 9.52501 8.13734C9.47605 8.28872 9.4693 8.45058 9.50548 8.60552L10.2465 11.8124L7.45361 10.1171C7.31734 10.0341 7.16088 9.9902 7.00134 9.9902C6.8418 9.9902 6.68534 10.0341 6.54907 10.1171L3.76001 11.8124L4.49611 8.6077C4.53228 8.45277 4.52553 8.29091 4.47658 8.13953C4.42763 7.98815 4.33833 7.85298 4.21829 7.74856L1.75079 5.59716C1.75059 5.59552 1.75059 5.59387 1.75079 5.59224L5.00142 5.31114C5.16012 5.29715 5.312 5.2401 5.44065 5.14613C5.56931 5.05217 5.66988 4.92486 5.7315 4.77794L7.00079 1.75427L8.26954 4.77794C8.33116 4.92486 8.43172 5.05217 8.56038 5.14613C8.68904 5.2401 8.84092 5.29715 8.99962 5.31114L12.2508 5.59224C12.2508 5.59224 12.2508 5.59552 12.2508 5.59606L12.2497 5.59388Z" fill="#D6D6D6"/>
</svg>
