<svg width="27" height="27" viewBox="0 0 27 27" fill="none" xmlns="http://www.w3.org/2000/svg">
<path d="M24.3557 22.3583C22.7494 19.5813 20.274 17.5901 17.3852 16.6462C18.8142 15.7955 19.9243 14.4993 20.5453 12.9566C21.1663 11.414 21.2637 9.71011 20.8225 8.10672C20.3814 6.50334 19.4261 5.08909 18.1035 4.08116C16.7808 3.07323 15.1638 2.52734 13.5008 2.52734C11.8379 2.52734 10.2209 3.07323 8.89819 4.08116C7.5755 5.08909 6.62024 6.50334 6.17912 8.10672C5.73799 9.71011 5.83538 11.414 6.45634 12.9566C7.07729 14.4993 8.18748 15.7955 9.61641 16.6462C6.72762 17.589 4.25226 19.5803 2.64598 22.3583C2.58707 22.4544 2.548 22.5613 2.53107 22.6727C2.51413 22.784 2.51968 22.8977 2.54739 23.0069C2.57509 23.1161 2.62439 23.2187 2.69237 23.3085C2.76036 23.3984 2.84565 23.4737 2.94321 23.5301C3.04078 23.5864 3.14864 23.6227 3.26045 23.6367C3.37225 23.6507 3.48572 23.6421 3.59416 23.6116C3.70261 23.581 3.80383 23.529 3.89187 23.4587C3.9799 23.3883 4.05295 23.3011 4.10672 23.2021C6.09375 19.768 9.60586 17.7177 13.5008 17.7177C17.3958 17.7177 20.9079 19.768 22.8949 23.2021C22.9487 23.3011 23.0217 23.3883 23.1098 23.4587C23.1978 23.529 23.299 23.581 23.4075 23.6116C23.5159 23.6421 23.6294 23.6507 23.7412 23.6367C23.853 23.6227 23.9609 23.5864 24.0584 23.5301C24.156 23.4737 24.2413 23.3984 24.3093 23.3085C24.3773 23.2187 24.4265 23.1161 24.4543 23.0069C24.482 22.8977 24.4875 22.784 24.4706 22.6727C24.4536 22.5613 24.4146 22.4544 24.3557 22.3583ZM7.59457 10.124C7.59457 8.95582 7.94097 7.8139 8.58995 6.84263C9.23894 5.87135 10.1614 5.11433 11.2406 4.6673C12.3198 4.22027 13.5074 4.10331 14.6531 4.3312C15.7988 4.55909 16.8512 5.12161 17.6772 5.94761C18.5032 6.77362 19.0657 7.82601 19.2936 8.97171C19.5215 10.1174 19.4045 11.305 18.9575 12.3842C18.5105 13.4634 17.7534 14.3858 16.7822 15.0348C15.8109 15.6838 14.669 16.0302 13.5008 16.0302C11.9349 16.0285 10.4336 15.4057 9.32632 14.2985C8.21905 13.1912 7.59625 11.6899 7.59457 10.124Z" fill="#E95420"/>
</svg>
