<svg width="27" height="27" viewBox="0 0 27 27" fill="none" xmlns="http://www.w3.org/2000/svg">
<path d="M25.8191 15.8616C25.7304 15.9281 25.6296 15.9764 25.5222 16.0039C25.4149 16.0314 25.3032 16.0375 25.1935 16.0219C25.0838 16.0062 24.9783 15.9691 24.8829 15.9126C24.7876 15.8562 24.7043 15.7815 24.6378 15.6928C24.1293 15.0093 23.4673 14.4546 22.7053 14.0736C21.9432 13.6926 21.1023 13.4958 20.2503 13.4991C20.0844 13.4991 19.9222 13.4501 19.7839 13.3584C19.6457 13.2667 19.5375 13.1362 19.473 12.9833C19.4292 12.8795 19.4066 12.768 19.4066 12.6553C19.4066 12.5427 19.4292 12.4311 19.473 12.3273C19.5375 12.1745 19.6457 12.044 19.7839 11.9523C19.9222 11.8605 20.0844 11.8116 20.2503 11.8116C20.7237 11.8115 21.1877 11.6787 21.5894 11.4283C21.9911 11.1778 22.3145 10.8196 22.5229 10.3946C22.7313 9.96947 22.8163 9.49446 22.7683 9.02348C22.7202 8.55251 22.5411 8.10444 22.2512 7.73018C21.9612 7.35593 21.5722 7.07047 21.1281 6.90626C20.6841 6.74204 20.2029 6.70563 19.7393 6.80117C19.2756 6.89672 18.848 7.12038 18.5051 7.44676C18.1621 7.77313 17.9176 8.18914 17.7992 8.64753C17.7715 8.75487 17.723 8.8557 17.6563 8.94427C17.5896 9.03284 17.5062 9.10741 17.4107 9.16372C17.3152 9.22004 17.2095 9.25699 17.0998 9.27247C16.99 9.28796 16.8782 9.28167 16.7709 9.25397C16.6636 9.22627 16.5627 9.1777 16.4742 9.11103C16.3856 9.04436 16.311 8.9609 16.2547 8.86541C16.1984 8.76992 16.1614 8.66428 16.146 8.55451C16.1305 8.44474 16.1368 8.33299 16.1645 8.22565C16.3287 7.59001 16.6391 7.00147 17.0708 6.50688C17.5026 6.01229 18.0438 5.62529 18.6515 5.37668C19.2591 5.12806 19.9164 5.0247 20.571 5.07481C21.2256 5.12491 21.8595 5.32711 22.4222 5.66531C22.9849 6.0035 23.461 6.46836 23.8124 7.02291C24.1638 7.57745 24.381 8.20636 24.4466 8.8596C24.5123 9.51284 24.4245 10.1724 24.1904 10.7857C23.9562 11.3991 23.5822 11.9494 23.098 12.3927C24.2453 12.8895 25.2426 13.6778 25.991 14.6793C26.0575 14.7682 26.1058 14.8693 26.1331 14.9768C26.1604 15.0844 26.1663 15.1963 26.1503 15.3061C26.1344 15.4159 26.0969 15.5215 26.04 15.6168C25.9832 15.7122 25.9081 15.7953 25.8191 15.8616ZM20.1364 22.3585C20.1975 22.4545 20.2385 22.5619 20.2569 22.6742C20.2754 22.7865 20.271 22.9013 20.2439 23.0119C20.2168 23.1224 20.1677 23.2263 20.0994 23.3173C20.0311 23.4084 19.9451 23.4847 19.8466 23.5416C19.7481 23.5986 19.6391 23.635 19.5261 23.6487C19.4131 23.6624 19.2986 23.6532 19.1893 23.6215C19.08 23.5897 18.9782 23.5363 18.8902 23.4642C18.8021 23.3922 18.7295 23.303 18.6767 23.2022C18.1452 22.3022 17.3882 21.5564 16.4805 21.0382C15.5727 20.5201 14.5455 20.2475 13.5003 20.2475C12.4551 20.2475 11.4279 20.5201 10.5202 21.0382C9.61241 21.5564 8.85543 22.3022 8.32391 23.2022C8.27117 23.303 8.19857 23.3922 8.11049 23.4642C8.0224 23.5363 7.92066 23.5897 7.81137 23.6215C7.70208 23.6532 7.5875 23.6624 7.47454 23.6487C7.36157 23.635 7.25255 23.5986 7.15403 23.5416C7.05551 23.4847 6.96953 23.4084 6.90125 23.3173C6.83298 23.2263 6.78383 23.1224 6.75676 23.0119C6.72968 22.9013 6.72525 22.7865 6.74372 22.6742C6.76219 22.5619 6.80318 22.4545 6.86423 22.3585C7.68224 20.953 8.92951 19.8469 10.4227 19.2028C9.5825 18.5595 8.96498 17.6691 8.65698 16.6566C8.34899 15.6442 8.366 14.5607 8.70562 13.5585C9.04525 12.5562 9.69041 11.6856 10.5504 11.069C11.4105 10.4523 12.4421 10.1207 13.5003 10.1207C14.5586 10.1207 15.5902 10.4523 16.4502 11.069C17.3102 11.6856 17.9554 12.5562 18.295 13.5585C18.6346 14.5607 18.6517 15.6442 18.3437 16.6566C18.0357 17.6691 17.4181 18.5595 16.5779 19.2028C18.0711 19.8469 19.3184 20.953 20.1364 22.3585ZM13.5003 18.5616C14.1678 18.5616 14.8204 18.3636 15.3754 17.9928C15.9304 17.622 16.363 17.0948 16.6184 16.4781C16.8739 15.8614 16.9407 15.1828 16.8105 14.5282C16.6802 13.8735 16.3588 13.2721 15.8868 12.8001C15.4148 12.3281 14.8134 12.0067 14.1587 11.8764C13.5041 11.7462 12.8255 11.8131 12.2088 12.0685C11.5921 12.3239 11.065 12.7565 10.6941 13.3115C10.3233 13.8666 10.1253 14.5191 10.1253 15.1866C10.1253 16.0817 10.4809 16.9401 11.1138 17.5731C11.7468 18.206 12.6052 18.5616 13.5003 18.5616ZM7.59407 12.6553C7.59407 12.4316 7.50517 12.217 7.34694 12.0587C7.18871 11.9005 6.9741 11.8116 6.75032 11.8116C6.2769 11.8115 5.81298 11.6787 5.41126 11.4283C5.00953 11.1778 4.6861 10.8196 4.47771 10.3946C4.26932 9.96947 4.18432 9.49446 4.23236 9.02348C4.2804 8.55251 4.45955 8.10444 4.74948 7.73018C5.03941 7.35593 5.42848 7.07047 5.8725 6.90626C6.31653 6.74204 6.79771 6.70563 7.26139 6.80117C7.72506 6.89672 8.15266 7.12038 8.49559 7.44676C8.83853 7.77313 9.08306 8.18914 9.20141 8.64753C9.25736 8.86431 9.39713 9.04999 9.58998 9.16372C9.78282 9.27745 10.013 9.30992 10.2297 9.25397C10.4465 9.19803 10.6322 9.05826 10.7459 8.86541C10.8597 8.67256 10.8921 8.44244 10.8362 8.22565C10.6719 7.59001 10.3615 7.00147 9.92979 6.50688C9.49804 6.01229 8.95681 5.62529 8.34918 5.37668C7.74154 5.12806 7.08427 5.0247 6.42965 5.07481C5.77504 5.12491 5.14115 5.32711 4.57843 5.66531C4.01571 6.0035 3.53969 6.46836 3.18824 7.02291C2.83679 7.57745 2.61962 8.20636 2.554 8.8596C2.48838 9.51284 2.57613 10.1724 2.81026 10.7857C3.0444 11.3991 3.41845 11.9494 3.90266 12.3927C2.75652 12.8899 1.76029 13.6782 1.01282 14.6793C0.878414 14.8583 0.820629 15.0834 0.852177 15.305C0.883725 15.5266 1.00202 15.7267 1.18104 15.8611C1.36006 15.9955 1.58515 16.0533 1.80677 16.0217C2.0284 15.9902 2.22841 15.8719 2.36282 15.6928C2.87138 15.0093 3.53333 14.4546 4.29539 14.0736C5.05744 13.6926 5.89832 13.4958 6.75032 13.4991C6.9741 13.4991 7.18871 13.4102 7.34694 13.252C7.50517 13.0937 7.59407 12.8791 7.59407 12.6553Z" fill="#E95420"/>
</svg>
