<svg width="16" height="16" viewBox="0 0 16 16" fill="none" xmlns="http://www.w3.org/2000/svg">
<path d="M15.8918 0.794172C15.7971 0.557102 15.6401 0.355428 15.4404 0.214229C15.2407 0.0730311 15.0071 -0.00145962 14.7686 2.16701e-05H1.22849C0.990257 0.000530126 0.757277 0.0759119 0.557816 0.217023C0.358354 0.358133 0.200983 0.558909 0.104794 0.794992C0.00860422 1.03108 -0.0222702 1.29232 0.0159159 1.54704C0.0541021 1.80175 0.159708 2.03899 0.319922 2.22998L0.326076 2.23747L5.5367 8.26402V14.6664C5.53665 14.9077 5.59706 15.1445 5.71149 15.3515C5.82592 15.5586 5.99007 15.7281 6.18646 15.842C6.38285 15.956 6.60409 16.01 6.82662 15.9985C7.04914 15.9869 7.26459 15.9101 7.45001 15.7764L9.91184 13.9981C10.0806 13.8763 10.219 13.7113 10.3147 13.5176C10.4104 13.324 10.4604 13.1077 10.4604 12.8881V8.26402L15.6718 2.23747L15.6779 2.22998C15.8398 2.03986 15.9464 1.80231 15.9845 1.54696C16.0225 1.29162 15.9903 1.02979 15.8918 0.794172ZM9.56333 7.35654C9.34953 7.60202 9.23013 7.92653 9.22945 8.26402V12.8881L6.76762 14.6664V8.26402C6.76833 7.92532 6.64943 7.59916 6.43527 7.35237L1.22849 1.33333H14.7686L9.56333 7.35654Z" fill="white"/>
</svg>
