<svg width="13" height="13" viewBox="0 0 13 13" fill="none" xmlns="http://www.w3.org/2000/svg">
<path d="M6.5 0.40625C5.29477 0.40625 4.11661 0.763642 3.1145 1.43323C2.11238 2.10282 1.33133 3.05454 0.870112 4.16802C0.40889 5.28151 0.288214 6.50676 0.523342 7.68883C0.758471 8.8709 1.33884 9.95671 2.19107 10.8089C3.0433 11.6612 4.1291 12.2415 5.31117 12.4767C6.49324 12.7118 7.71849 12.5911 8.83198 12.1299C9.94547 11.6687 10.8972 10.8876 11.5668 9.88551C12.2364 8.88339 12.5938 7.70523 12.5938 6.5C12.592 4.88436 11.9495 3.33538 10.8071 2.19295C9.66462 1.05052 8.11564 0.407956 6.5 0.40625ZM4.95489 8.84375H8.04512C7.73047 9.91836 7.20313 10.8869 6.5 11.6498C5.79688 10.8869 5.26953 9.91836 4.95489 8.84375ZM4.74219 7.90625C4.58672 6.9752 4.58672 6.0248 4.74219 5.09375H8.25782C8.41328 6.0248 8.41328 6.9752 8.25782 7.90625H4.74219ZM1.34375 6.5C1.34334 6.02448 1.40901 5.5512 1.53887 5.09375H3.79239C3.65254 6.02604 3.65254 6.97396 3.79239 7.90625H1.53887C1.40901 7.4488 1.34334 6.97552 1.34375 6.5ZM8.04512 4.15625H4.95489C5.26953 3.08164 5.79688 2.11309 6.5 1.3502C7.20313 2.11309 7.73047 3.08164 8.04512 4.15625ZM9.20762 5.09375H11.4611C11.7213 6.0132 11.7213 6.9868 11.4611 7.90625H9.20762C9.34746 6.97396 9.34746 6.02604 9.20762 5.09375ZM11.092 4.15625H9.01602C8.7768 3.21495 8.37506 2.32264 7.82891 1.51953C8.52667 1.70704 9.17747 2.03851 9.73945 2.49261C10.3014 2.94672 10.7622 3.51341 11.092 4.15625ZM5.1711 1.51953C4.62494 2.32264 4.2232 3.21495 3.98399 4.15625H1.90801C2.23785 3.51341 2.69857 2.94672 3.26056 2.49261C3.82254 2.03851 4.47333 1.70704 5.1711 1.51953ZM1.90801 8.84375H3.98399C4.2232 9.78505 4.62494 10.6774 5.1711 11.4805C4.47333 11.293 3.82254 10.9615 3.26056 10.5074C2.69857 10.0533 2.23785 9.48659 1.90801 8.84375ZM7.82891 11.4805C8.37506 10.6774 8.7768 9.78505 9.01602 8.84375H11.092C10.7622 9.48659 10.3014 10.0533 9.73945 10.5074C9.17747 10.9615 8.52667 11.293 7.82891 11.4805Z" fill="#E95420"/>
</svg>
